<svg xmlns="http://www.w3.org/2000/svg" xmlns:xlink="http://www.w3.org/1999/xlink" viewBox="0 0 587.12 674.96"><defs><style>.cls-1{fill:none;}.cls-2{fill:#00bcd4;}.cls-3{fill:#1a1a1a;}.cls-4{fill:url(#New_Pattern_Swatch_1);}.cls-5{fill:url(#linear-gradient);}.cls-6{fill:url(#linear-gradient-2);}</style><pattern id="New_Pattern_Swatch_1" data-name="New Pattern Swatch 1" width="100" height="100" patternUnits="userSpaceOnUse" viewBox="0 0 100 100"><rect class="cls-1" width="100" height="100"/><rect class="cls-2" width="100" height="100"/></pattern><linearGradient id="linear-gradient" x1="545.49" y1="245.68" x2="485.46" y2="174.14" gradientUnits="userSpaceOnUse"><stop offset="0" stop-color="#00bcd4"/><stop offset="0.23" stop-color="#00bad1"/><stop offset="0.41" stop-color="#00b2c7"/><stop offset="0.58" stop-color="#00a4b6"/><stop offset="0.74" stop-color="#00929e"/><stop offset="0.9" stop-color="#007a80"/><stop offset="1" stop-color="#066"/></linearGradient><linearGradient id="linear-gradient-2" x1="31.71" y1="158.74" x2="97.75" y2="224.77" gradientUnits="userSpaceOnUse"><stop offset="0" stop-color="#00bcd4"/><stop offset="0.44" stop-color="#00bbd2"/><stop offset="0.6" stop-color="#00b5cb"/><stop offset="0.71" stop-color="#00acc0"/><stop offset="0.8" stop-color="#009faf"/><stop offset="0.88" stop-color="#008e99"/><stop offset="0.95" stop-color="#00797e"/><stop offset="1" stop-color="#066"/></linearGradient></defs><title>Artboard 5</title><g id="Layer_1" data-name="Layer 1"><path class="cls-3" d="M17.23,489.52h5.48a2.6,2.6,0,0,1,1.72.56,2.77,2.77,0,0,1,.9,1.24l18.83,58.88a32.29,32.29,0,0,1,.82,3.3l.6,3.15q.37-1.57.83-3.15t1-3.3l20-59.4a2.08,2.08,0,0,1,2.1-1.65H72.5a2.12,2.12,0,0,1,2.17,1.65l19.73,59.4a61.28,61.28,0,0,1,1.8,6.53q.3-1.57.64-3.19a26.8,26.8,0,0,1,.94-3.34l18.9-58.87a2.45,2.45,0,0,1,2.55-1.8h5.25l-25,74.63H94.25q-1.2,0-1.72-1.58L72.05,502q-.38-1.12-.67-2.25t-.53-2.25q-.22,1.13-.49,2.25T69.73,502L49,562.57q-.45,1.57-1.8,1.58h-5Z"/><path class="cls-3" d="M166.4,488.32a30.76,30.76,0,0,1,11.66,2.17,26.22,26.22,0,0,1,9.3,6.34,29.24,29.24,0,0,1,6.15,10.24,40.67,40.67,0,0,1,2.21,14,3.74,3.74,0,0,1-.49,2.25,1.86,1.86,0,0,1-1.54.6H139.85v1.43a50.59,50.59,0,0,0,2,14.77,30.26,30.26,0,0,0,5.55,10.69,22.87,22.87,0,0,0,8.7,6.49,28.76,28.76,0,0,0,11.4,2.18,34.11,34.11,0,0,0,9.75-1.24,36.29,36.29,0,0,0,6.94-2.77,38,38,0,0,0,4.46-2.78,5.05,5.05,0,0,1,2.4-1.24,1.72,1.72,0,0,1,1.5.75l2,2.4a20.34,20.34,0,0,1-4.76,4.2,34,34,0,0,1-6.6,3.34,48,48,0,0,1-7.8,2.21,43,43,0,0,1-8.36.82,35.5,35.5,0,0,1-14-2.66,29.65,29.65,0,0,1-10.81-7.76,35.53,35.53,0,0,1-7-12.49,53.35,53.35,0,0,1-2.46-16.91A46.09,46.09,0,0,1,135,510.48a33.9,33.9,0,0,1,6.6-11.7,30.08,30.08,0,0,1,10.58-7.69A34.74,34.74,0,0,1,166.4,488.32Zm.11,5.33a28,28,0,0,0-10.33,1.8,22.61,22.61,0,0,0-7.9,5.17,26.4,26.4,0,0,0-5.39,8.1,36.87,36.87,0,0,0-2.73,10.58h49.13a32.8,32.8,0,0,0-1.65-10.76,23,23,0,0,0-4.64-8.06,20.09,20.09,0,0,0-7.19-5.06A23.74,23.74,0,0,0,166.51,493.64Z"/><path class="cls-3" d="M215.68,564.14V455h7.13l.08,47.55a39,39,0,0,1,11.47-10.42,28.52,28.52,0,0,1,14.7-3.83q13.72,0,21.41,9.49t7.69,28.54A52.56,52.56,0,0,1,276,541.61a36.25,36.25,0,0,1-6.31,12.3,29.94,29.94,0,0,1-10.21,8.21,30.94,30.94,0,0,1-13.93,3,27.94,27.94,0,0,1-13.44-3,27.66,27.66,0,0,1-9.69-9l-.45,9.15a1.85,1.85,0,0,1-2,1.88ZM247,494a24.52,24.52,0,0,0-13.45,3.83,38.08,38.08,0,0,0-10.74,10.65v39.38q4.28,6.45,9.46,9a29,29,0,0,0,23.51.19,22.76,22.76,0,0,0,8.3-6.79,30.55,30.55,0,0,0,5-10.5,50.37,50.37,0,0,0,1.69-13.46q0-16.65-6.16-24.49T247,494Z"/><path class="cls-3" d="M296.83,564.14V489.52h3.9a2,2,0,0,1,2.25,1.88l.68,10.8a47.14,47.14,0,0,1,4.65-5.62,31.12,31.12,0,0,1,5.29-4.39,24.45,24.45,0,0,1,6-2.85,22,22,0,0,1,6.71-1q8.17,0,13,4.76t6.6,13.24a25.91,25.91,0,0,1,3.78-8,23.69,23.69,0,0,1,5.58-5.59,23.18,23.18,0,0,1,6.85-3.3,26.86,26.86,0,0,1,7.6-1.09,25.74,25.74,0,0,1,10,1.84,19.91,19.91,0,0,1,7.52,5.44,24.65,24.65,0,0,1,4.75,8.85,40.07,40.07,0,0,1,1.65,12v47.7h-7.12v-47.7q0-10.95-4.73-16.69T368.3,494a19.92,19.92,0,0,0-7.46,1.42,18.08,18.08,0,0,0-6.3,4.24,20.35,20.35,0,0,0-4.35,7,27.09,27.09,0,0,0-1.61,9.75v47.7h-7.12v-47.7q0-10.87-4.35-16.65T324.43,494a19.17,19.17,0,0,0-11.25,3.64A34.53,34.53,0,0,0,304,507.74v56.4Z"/><path class="cls-3" d="M444.57,488.32a35.91,35.91,0,0,1,14.36,2.74,29.31,29.31,0,0,1,10.69,7.76,34.41,34.41,0,0,1,6.64,12.11,56,56,0,0,1,0,31.69,34.43,34.43,0,0,1-6.64,12.08,28.91,28.91,0,0,1-10.69,7.73,39.56,39.56,0,0,1-28.72,0,29.25,29.25,0,0,1-10.73-7.73,34.08,34.08,0,0,1-6.67-12.08,56,56,0,0,1,0-31.69,34.07,34.07,0,0,1,6.67-12.11,29.66,29.66,0,0,1,10.73-7.76A35.9,35.9,0,0,1,444.57,488.32Zm0,71.17a27.73,27.73,0,0,0,11.66-2.29,22.08,22.08,0,0,0,8.33-6.56,28.93,28.93,0,0,0,5-10.31,56.19,56.19,0,0,0,0-27,29.31,29.31,0,0,0-5-10.39,22.28,22.28,0,0,0-8.33-6.64,30.41,30.41,0,0,0-23.32,0,22.26,22.26,0,0,0-8.33,6.64,29.79,29.79,0,0,0-5,10.39,55,55,0,0,0,0,27,29.4,29.4,0,0,0,5,10.31,22.06,22.06,0,0,0,8.33,6.56A27.72,27.72,0,0,0,444.57,559.49Z"/><path class="cls-3" d="M498,564.14V455h7.13l.08,47.55a39,39,0,0,1,11.47-10.42,28.52,28.52,0,0,1,14.7-3.83q13.72,0,21.41,9.49t7.69,28.54a52.56,52.56,0,0,1-2.14,15.26,36.25,36.25,0,0,1-6.31,12.3,29.94,29.94,0,0,1-10.21,8.21,30.94,30.94,0,0,1-13.93,3,27.94,27.94,0,0,1-13.44-3,27.66,27.66,0,0,1-9.69-9l-.45,9.15a1.85,1.85,0,0,1-2,1.88ZM529.36,494a24.52,24.52,0,0,0-13.45,3.83,38.08,38.08,0,0,0-10.74,10.65v39.38q4.28,6.45,9.46,9a29,29,0,0,0,23.51.19,22.76,22.76,0,0,0,8.3-6.79,30.57,30.57,0,0,0,5-10.5,50.41,50.41,0,0,0,1.69-13.46q0-16.65-6.16-24.49T529.36,494Z"/><path class="cls-4" d="M35.67,653.66a7.94,7.94,0,0,1-6-2.18,8.69,8.69,0,0,1-2.1-6.27V625.06h-4a1.29,1.29,0,0,1-.88-.31,1.2,1.2,0,0,1-.36-1v-2.31l5.39-.68,1.33-10.17a1.23,1.23,0,0,1,.42-.8,1.35,1.35,0,0,1,.91-.31h2.92v11.34h9.42v4.19H33.36v19.76a4.2,4.2,0,0,0,1,3.09,3.52,3.52,0,0,0,2.6,1,4.6,4.6,0,0,0,1.58-.24,6.72,6.72,0,0,0,1.15-.54q.49-.29.83-.54a1.08,1.08,0,0,1,.6-.24,1,1,0,0,1,.81.55l1.69,2.76A10.77,10.77,0,0,1,40,652.87,12.25,12.25,0,0,1,35.67,653.66Z"/><path class="cls-4" d="M79.22,619.7a14.69,14.69,0,0,1,5.46,1A12.26,12.26,0,0,1,89,623.55a13.05,13.05,0,0,1,2.84,4.61,17.83,17.83,0,0,1,1,6.26,3.76,3.76,0,0,1-.29,1.82,1.21,1.21,0,0,1-1.1.46H69.57a18.15,18.15,0,0,0,.85,5.43A11.08,11.08,0,0,0,72.56,646a8.59,8.59,0,0,0,3.25,2.31A11.16,11.16,0,0,0,80,649a12.39,12.39,0,0,0,3.75-.5,17.93,17.93,0,0,0,2.71-1.09,20.75,20.75,0,0,0,1.9-1.09,2.52,2.52,0,0,1,1.32-.5,1.27,1.27,0,0,1,1.1.55l1.63,2.11a11,11,0,0,1-2.57,2.26,15.94,15.94,0,0,1-3.2,1.58,20.31,20.31,0,0,1-3.53.93,21.62,21.62,0,0,1-3.61.31,16.73,16.73,0,0,1-6.29-1.15,13.79,13.79,0,0,1-5-3.38A15.49,15.49,0,0,1,65,643.56,22.39,22.39,0,0,1,63.85,636a19.16,19.16,0,0,1,1.06-6.43,15.15,15.15,0,0,1,3-5.18A14,14,0,0,1,72.78,621,15.9,15.9,0,0,1,79.22,619.7Zm.13,4.26a8.88,8.88,0,0,0-6.6,2.42,11.39,11.39,0,0,0-3,6.71H87.67a11.72,11.72,0,0,0-.55-3.69,8.21,8.21,0,0,0-1.62-2.89,7.27,7.27,0,0,0-2.62-1.88A8.82,8.82,0,0,0,79.35,624Z"/><path class="cls-4" d="M139,626.07a2.63,2.63,0,0,1-.52.55,1.23,1.23,0,0,1-.75.19,1.85,1.85,0,0,1-1.06-.41,15.61,15.61,0,0,0-1.45-.89,12.08,12.08,0,0,0-2.13-.89,11.29,11.29,0,0,0-7.33.46,8.25,8.25,0,0,0-3.1,2.49,11.24,11.24,0,0,0-1.88,3.93,19.49,19.49,0,0,0-.63,5.17,18.87,18.87,0,0,0,.68,5.31,11.51,11.51,0,0,0,1.92,3.9,8.18,8.18,0,0,0,3,2.41,9.29,9.29,0,0,0,4,.83,10.15,10.15,0,0,0,3.48-.5,10.55,10.55,0,0,0,2.28-1.12,16.68,16.68,0,0,0,1.5-1.12,1.8,1.8,0,0,1,1.17-.5,1.22,1.22,0,0,1,1.1.55l1.63,2.11a12.5,12.5,0,0,1-5.36,3.85,19,19,0,0,1-6.79,1.22,14.39,14.39,0,0,1-5.74-1.14,13.06,13.06,0,0,1-4.6-3.3,15.63,15.63,0,0,1-3.07-5.31,21.35,21.35,0,0,1-1.12-7.18,21.66,21.66,0,0,1,1-6.79,15.38,15.38,0,0,1,3-5.38A13.54,13.54,0,0,1,123,621a16.38,16.38,0,0,1,6.63-1.27,15.65,15.65,0,0,1,6.11,1.12,14.61,14.61,0,0,1,4.71,3.17Z"/><path class="cls-4" d="M163.1,653.14V605.27h5.78v19.37a17.78,17.78,0,0,1,4.68-3.59,12.54,12.54,0,0,1,5.92-1.35,11.89,11.89,0,0,1,4.76.89,9.23,9.23,0,0,1,3.45,2.54,11.21,11.21,0,0,1,2.1,3.95,17.23,17.23,0,0,1,.71,5.1v21h-5.79v-21a8.87,8.87,0,0,0-1.71-5.8,6.38,6.38,0,0,0-5.22-2.06,9.73,9.73,0,0,0-4.79,1.23,15.81,15.81,0,0,0-4.11,3.35v24.25Z"/><path class="cls-4" d="M215.49,653.14V620.22h3.45a1.47,1.47,0,0,1,1.56,1.2L221,625a18.49,18.49,0,0,1,4.79-3.84,12.47,12.47,0,0,1,6.13-1.46,11.89,11.89,0,0,1,4.76.89,9.23,9.23,0,0,1,3.44,2.54,11.2,11.2,0,0,1,2.1,3.95,17.2,17.2,0,0,1,.71,5.1v21H237.1v-21a8.86,8.86,0,0,0-1.71-5.8,6.38,6.38,0,0,0-5.22-2.06,9.72,9.72,0,0,0-4.79,1.23,15.79,15.79,0,0,0-4.11,3.35v24.25Z"/><path class="cls-4" d="M281.21,619.7a16.93,16.93,0,0,1,6.52,1.2,13.75,13.75,0,0,1,4.94,3.41,15.13,15.13,0,0,1,3.12,5.35,23.14,23.14,0,0,1,0,14,15.15,15.15,0,0,1-3.12,5.33,13.57,13.57,0,0,1-4.94,3.4,18.49,18.49,0,0,1-13,0,13.7,13.7,0,0,1-5-3.4,15.19,15.19,0,0,1-3.15-5.33,22.81,22.81,0,0,1,0-14,15.16,15.16,0,0,1,3.15-5.35,13.89,13.89,0,0,1,5-3.41A16.92,16.92,0,0,1,281.21,619.7Zm0,29.38q4.88,0,7.28-3.27t2.41-9.12q0-5.88-2.41-9.17t-7.28-3.28a10.12,10.12,0,0,0-4.29.84,8.05,8.05,0,0,0-3,2.44,10.83,10.83,0,0,0-1.82,3.92,23.12,23.12,0,0,0,0,10.48,10.65,10.65,0,0,0,1.82,3.88,8.09,8.09,0,0,0,3,2.42A10.1,10.1,0,0,0,281.21,649.08Z"/><path class="cls-4" d="M326.71,605.27v47.87h-5.79V605.27Z"/><path class="cls-4" d="M366.49,619.7a16.93,16.93,0,0,1,6.52,1.2,13.75,13.75,0,0,1,4.94,3.41,15.13,15.13,0,0,1,3.12,5.35,23.12,23.12,0,0,1,0,14,15.15,15.15,0,0,1-3.12,5.33,13.56,13.56,0,0,1-4.94,3.4,18.49,18.49,0,0,1-13,0,13.71,13.71,0,0,1-5-3.4,15.18,15.18,0,0,1-3.15-5.33,22.79,22.79,0,0,1,0-14,15.16,15.16,0,0,1,3.15-5.35,13.89,13.89,0,0,1,5-3.41A16.93,16.93,0,0,1,366.49,619.7Zm0,29.38q4.88,0,7.28-3.27t2.4-9.12q0-5.88-2.4-9.17t-7.28-3.28a10.12,10.12,0,0,0-4.29.84,8,8,0,0,0-3,2.44,10.83,10.83,0,0,0-1.82,3.92,23.12,23.12,0,0,0,0,10.48,10.65,10.65,0,0,0,1.82,3.88,8.08,8.08,0,0,0,3,2.42A10.1,10.1,0,0,0,366.49,649.08Z"/><path class="cls-4" d="M416.63,619.67a16.41,16.41,0,0,1,4,.47,12.65,12.65,0,0,1,3.4,1.38H433v2.14q0,1.07-1.36,1.37l-3.74.52a10,10,0,0,1,1.11,4.71,10.13,10.13,0,0,1-.93,4.37,9.93,9.93,0,0,1-2.57,3.36,11.51,11.51,0,0,1-3.9,2.14,15.68,15.68,0,0,1-5,.75,16.66,16.66,0,0,1-4.36-.55,5.53,5.53,0,0,0-1.58,1.44,2.66,2.66,0,0,0-.54,1.51,2.05,2.05,0,0,0,.94,1.83,6.57,6.57,0,0,0,2.5.89,21.06,21.06,0,0,0,3.54.27h4a22.5,22.5,0,0,1,4,.36,12.29,12.29,0,0,1,3.54,1.18,6.62,6.62,0,0,1,2.5,2.27,6.76,6.76,0,0,1,.94,3.75,8.8,8.8,0,0,1-1.06,4.15,11.2,11.2,0,0,1-3,3.57,15.62,15.62,0,0,1-4.84,2.5,20.72,20.72,0,0,1-6.47.94,25,25,0,0,1-6.32-.71,14.83,14.83,0,0,1-4.5-1.92,8.37,8.37,0,0,1-2.68-2.78,6.61,6.61,0,0,1-.89-3.3,6,6,0,0,1,1.54-4.15,10.6,10.6,0,0,1,4.24-2.72,5.82,5.82,0,0,1-2.23-1.74,4.68,4.68,0,0,1-.83-2.9,4.56,4.56,0,0,1,.26-1.48,5.81,5.81,0,0,1,.8-1.51,8.5,8.5,0,0,1,3.14-2.63,10.25,10.25,0,0,1-3.82-3.62,9.92,9.92,0,0,1-1.38-5.28,10.12,10.12,0,0,1,.93-4.37,9.67,9.67,0,0,1,2.58-3.35,11.84,11.84,0,0,1,3.95-2.13A16.12,16.12,0,0,1,416.63,619.67Zm10.27,35.15a2.92,2.92,0,0,0-.68-2,4.39,4.39,0,0,0-1.85-1.18,13.15,13.15,0,0,0-2.7-.61,24.89,24.89,0,0,0-3.22-.2H415a12.57,12.57,0,0,1-3.35-.44,9.5,9.5,0,0,0-3,2.15,4.35,4.35,0,0,0-1.15,3,4,4,0,0,0,.57,2.07,4.85,4.85,0,0,0,1.74,1.66,10.19,10.19,0,0,0,2.94,1.11,18.88,18.88,0,0,0,4.18.41,18.57,18.57,0,0,0,4.19-.43,10.46,10.46,0,0,0,3.14-1.23,6,6,0,0,0,2-1.89A4.48,4.48,0,0,0,426.9,654.82Zm-10.27-17.76a9.1,9.1,0,0,0,3.1-.49A6.29,6.29,0,0,0,422,635.2a5.59,5.59,0,0,0,1.37-2.1,7.62,7.62,0,0,0,.45-2.68,6.4,6.4,0,0,0-1.84-4.81,8.84,8.84,0,0,0-10.66,0,6.4,6.4,0,0,0-1.84,4.81,7.37,7.37,0,0,0,.47,2.68,5.75,5.75,0,0,0,1.38,2.1,6.29,6.29,0,0,0,2.24,1.37A8.86,8.86,0,0,0,416.63,637.06Z"/><path class="cls-4" d="M462.75,609.89a3.68,3.68,0,0,1-.34,1.58,4.53,4.53,0,0,1-.91,1.3,4.23,4.23,0,0,1-1.32.89,4,4,0,0,1-1.59.33,3.84,3.84,0,0,1-1.58-.33,4.33,4.33,0,0,1-2.19-2.19,3.83,3.83,0,0,1-.33-1.58,4.07,4.07,0,0,1,.33-1.61,4.18,4.18,0,0,1,.89-1.33,4.31,4.31,0,0,1,1.3-.89,3.85,3.85,0,0,1,1.58-.33,4,4,0,0,1,1.59.33,4.25,4.25,0,0,1,1.32.89,4.43,4.43,0,0,1,.91,1.33A3.9,3.9,0,0,1,462.75,609.89Zm-1.3,10.33v32.92h-5.79V620.22Z"/><path class="cls-4" d="M500.94,619.7a14.69,14.69,0,0,1,5.46,1,12.26,12.26,0,0,1,4.32,2.86,13.05,13.05,0,0,1,2.84,4.61,17.83,17.83,0,0,1,1,6.26,3.76,3.76,0,0,1-.29,1.82,1.21,1.21,0,0,1-1.11.46h-21.9a18.18,18.18,0,0,0,.84,5.43,11.1,11.1,0,0,0,2.15,3.85,8.58,8.58,0,0,0,3.25,2.31,11.16,11.16,0,0,0,4.22.76,12.4,12.4,0,0,0,3.75-.5,17.93,17.93,0,0,0,2.71-1.09,20.75,20.75,0,0,0,1.9-1.09,2.52,2.52,0,0,1,1.32-.5,1.27,1.27,0,0,1,1.11.55l1.63,2.11a11,11,0,0,1-2.57,2.26,16,16,0,0,1-3.2,1.58,20.33,20.33,0,0,1-3.53.93,21.62,21.62,0,0,1-3.61.31,16.74,16.74,0,0,1-6.29-1.15,13.8,13.8,0,0,1-5-3.38,15.48,15.48,0,0,1-3.27-5.51,22.39,22.39,0,0,1-1.17-7.54,19.19,19.19,0,0,1,1.06-6.43,15.15,15.15,0,0,1,3-5.18A14,14,0,0,1,494.5,621,15.9,15.9,0,0,1,500.94,619.7Zm.13,4.26a8.88,8.88,0,0,0-6.6,2.42,11.4,11.4,0,0,0-3,6.71h17.91a11.72,11.72,0,0,0-.55-3.69,8.24,8.24,0,0,0-1.62-2.89,7.28,7.28,0,0,0-2.62-1.88A8.82,8.82,0,0,0,501.07,624Z"/><path class="cls-4" d="M557.06,625.65a1.28,1.28,0,0,1-1.2.71,2.26,2.26,0,0,1-1.11-.36q-.62-.36-1.51-.8a14.17,14.17,0,0,0-2.13-.81,10.16,10.16,0,0,0-2.92-.37,8.64,8.64,0,0,0-2.63.37,6.33,6.33,0,0,0-2,1,4.53,4.53,0,0,0-1.27,1.51,4.05,4.05,0,0,0-.44,1.87,3.11,3.11,0,0,0,.73,2.11,6.32,6.32,0,0,0,1.93,1.46,16.76,16.76,0,0,0,2.73,1.09q1.53.47,3.14,1t3.14,1.19a11.42,11.42,0,0,1,2.73,1.63,7.43,7.43,0,0,1,1.93,2.39,7.31,7.31,0,0,1,.73,3.4,10.75,10.75,0,0,1-.81,4.21,9.2,9.2,0,0,1-2.4,3.35,11.6,11.6,0,0,1-3.9,2.23,16,16,0,0,1-5.33.81,16.62,16.62,0,0,1-6.24-1.12,15.81,15.81,0,0,1-4.75-2.88l1.37-2.21a2,2,0,0,1,.62-.65,1.74,1.74,0,0,1,.94-.23,2.18,2.18,0,0,1,1.23.46q.65.46,1.58,1a12.11,12.11,0,0,0,2.24,1,10.21,10.21,0,0,0,3.3.46,9,9,0,0,0,3-.44,6.21,6.21,0,0,0,2.11-1.19,4.69,4.69,0,0,0,1.25-1.72,5.34,5.34,0,0,0,.41-2.08,3.45,3.45,0,0,0-.73-2.26,6.18,6.18,0,0,0-1.93-1.53,15.79,15.79,0,0,0-2.75-1.11q-1.54-.47-3.15-1T541.77,637a11,11,0,0,1-2.75-1.67,7.59,7.59,0,0,1-1.93-2.49,8,8,0,0,1-.73-3.59,8.76,8.76,0,0,1,.78-3.62,8.89,8.89,0,0,1,2.27-3.05,11.2,11.2,0,0,1,3.67-2.1,14.68,14.68,0,0,1,5-.78,15.72,15.72,0,0,1,5.83,1,13.81,13.81,0,0,1,4.47,2.81Z"/><path class="cls-5" d="M575.69,130.09V395.31a8.37,8.37,0,0,1-5.16,7.72,8.26,8.26,0,0,1-3.22.64,8.34,8.34,0,0,1-5.9-2.44l-76.64-76.38a8.33,8.33,0,0,1-2.46-6l.2-92.76,0-2.88Z"/><path class="cls-4" d="M575.69,18.27V130.09l-93.16,93.16v-.1l-1.48,1.5-5.88,5.94-54.38,54.12a8.45,8.45,0,0,1-5.9,2.48h0a8.17,8.17,0,0,1-5.14-1.84l-14.24-14.24-40.34-40.66-98.24-98.24a8.39,8.39,0,0,1-2.44-5.92v-108a8.36,8.36,0,0,1,14.18-6l.12.1,128.78,128.8,17.74,17.72L563.11,11a8.44,8.44,0,0,1,4.2-1.14,8.64,8.64,0,0,1,3.22.64A8.4,8.4,0,0,1,575.69,18.27Z"/><path class="cls-4" d="M334.85,287.29v108a8.37,8.37,0,0,1-5.16,7.72,8.16,8.16,0,0,1-3.2.64,8.34,8.34,0,0,1-5.82-2.36l-.1-.08L191.77,272.41l-17.72-17.72L26.19,402.53a8.23,8.23,0,0,1-4.2,1.14,8.09,8.09,0,0,1-3.2-.64,8.36,8.36,0,0,1-5.18-7.72V283.49l93.18-93.18v.12l1.48-1.52,5.86-5.92,54.4-54.14a8.36,8.36,0,0,1,5.9-2.46h0a8.26,8.26,0,0,1,5.14,1.82l14.24,14.24,40.36,40.66,5.7,5.72,92.52,92.52A8.47,8.47,0,0,1,334.85,287.29Z"/><path class="cls-6" d="M107,94.67l-.22,92.78v2.86L13.61,283.49V18.27a8.4,8.4,0,0,1,5.16-7.74A8.64,8.64,0,0,1,22,9.89a8.43,8.43,0,0,1,5.9,2.44l76.66,76.4A8.4,8.4,0,0,1,107,94.67Z"/></g></svg>